<svg width="19" height="18" viewBox="0 0 68 60" fill="none" xmlns="http://www.w3.org/2000/svg">
<path d="M34.1739 59.1666C30.4781 59.1508 27.4813 56.553 27.4448 53.3333H40.8361C40.8441 54.1129 40.6746 54.8861 40.3373 55.6083C39.4585 57.3638 37.6648 58.6443 35.5164 59.0499H35.4996H35.4561H35.4226H35.3858H35.3624C34.9712 59.1205 34.5733 59.1596 34.1739 59.1666ZM60.9565 50.4166H7.3913V44.5833L14.087 41.6666V25.6249C13.9106 21.5098 14.9773 17.4265 17.1803 13.7833C19.3733 10.4043 23.1217 8.00498 27.4783 7.19159V0.833252H40.8696V7.19159C49.5036 8.98242 54.2609 15.5274 54.2609 25.6249V41.6666L60.9565 44.5833V50.4166ZM67.5517 24.1666H60.8561C60.5443 16.6238 56.3823 9.5964 49.507 5.00409L54.2609 0.833252C58.265 3.54715 61.5007 7.02565 63.7185 11.0008C66.0117 15.1163 67.3161 19.5964 67.5517 24.1666ZM7.3913 24.1666H0.695648C0.931191 19.5964 2.2356 15.1162 4.52891 11.0008C6.74671 7.02565 9.98234 3.54715 13.9865 0.833252L18.7404 5.00409C11.8644 9.59586 7.70216 16.6236 7.3913 24.1666Z" fill="#074A74"/>
</svg>
