<?xml version="1.0" encoding="iso-8859-1"?>
<!-- Generator: Adobe Illustrator 18.0.0, SVG Export Plug-In . SVG Version: 6.00 Build 0)  -->
<!DOCTYPE svg PUBLIC "-//W3C//DTD SVG 1.1//EN" "http://www.w3.org/Graphics/SVG/1.1/DTD/svg11.dtd">
<svg version="1.1" id="Capa_1" xmlns="http://www.w3.org/2000/svg" xmlns:xlink="http://www.w3.org/1999/xlink" x="0px" y="0px"
	 viewBox="0 0 407.747 407.747" style="enable-background:new 0 0 407.747 407.747;" xml:space="preserve">
<g>
	<path fill="#074A74" d="M229.559,186.253c-8.321-0.667-16.477,1.008-23.717,4.761l-30.512-35.829c2.72-0.77,5.584-1.062,8.488-0.833
		c6.401,0.514,12.22,3.488,16.384,8.378c3.579,4.205,9.893,4.71,14.097,1.13c4.205-3.58,4.711-9.892,1.13-14.097
		c-7.627-8.957-18.286-14.407-30.013-15.347c-8.331-0.672-16.483,1.005-23.72,4.759l-4.484-5.266
		c-3.582-4.205-9.892-4.711-14.097-1.13s-4.711,9.893-1.13,14.097l4.495,5.277c-11.887,16.09-11.628,38.852,1.887,54.721
		c7.627,8.957,18.286,14.407,30.013,15.347c8.329,0.67,16.481-1.006,23.718-4.759l30.513,35.829c-2.718,0.769-5.58,1.06-8.488,0.831
		c-6.402-0.514-12.221-3.488-16.385-8.378c-3.581-4.205-9.893-4.711-14.097-1.13c-4.205,3.581-4.711,9.893-1.13,14.097
		c7.628,8.957,18.287,14.407,30.014,15.347c1.201,0.097,2.397,0.145,3.59,0.145c7.072,0,13.938-1.688,20.132-4.899l4.482,5.263
		c1.979,2.323,4.789,3.517,7.618,3.517c2.292,0,4.597-0.784,6.479-2.387c4.205-3.581,4.711-9.893,1.13-14.097l-4.486-5.268
		c4.857-6.547,7.809-14.33,8.477-22.658c0.939-11.727-2.743-23.117-10.371-32.073C251.944,192.642,241.285,187.192,229.559,186.253z
		 M179.976,202.286c-6.401-0.514-12.22-3.488-16.384-8.378c-6.283-7.377-7.316-17.482-3.48-25.745l28.351,33.291
		C185.742,202.224,182.878,202.516,179.976,202.286z M219.474,207.021c2.721-0.77,5.584-1.062,8.487-0.833
		c6.402,0.514,12.221,3.488,16.385,8.378s6.175,11.107,5.662,17.509c-0.233,2.904-0.977,5.686-2.172,8.25L219.474,207.021z"/>
	<path fill="#074A74" d="M316.342,108.537c-52.769-61.961-146.109-69.44-208.074-16.673c-30.016,25.563-48.28,61.284-51.43,100.584
		c5.512,0.251,10.185-4.036,10.426-9.555c0.241-5.518-4.037-10.186-9.555-10.426C161.227-1.696,111.128,15.516,71.784,49.023
		c-4.205,3.581-4.711,9.893-1.13,14.097C72.633,65.443,75.443,66.636,78.272,66.636z"/>
</g>
<g>
</g>
<g>
</g>
<g>
</g>
<g>
</g>
<g>
</g>
<g>
</g>
<g>
</g>
<g>
</g>
<g>
</g>
<g>
</g>
<g>
</g>
<g>
</g>
<g>
</g>
<g>
</g>
<g>
</g>
</svg>
